<svg width="1366" height="9000" viewBox="0 0 1366 9000" fill="none" xmlns="http://www.w3.org/2000/svg">
<g clip-path="url(#clip0_0_1)">
<rect width="1366" height="9000" fill="#E7E7E7"/>
<path d="M-118.976 -531.208L-726.275 -180.584C-761.469 -160.265 -773.528 -115.262 -753.208 -80.0675L-415.829 504.291C-395.51 539.485 -350.507 551.544 -315.312 531.224L291.987 180.6C327.181 160.28 339.24 115.277 318.92 80.0831L-18.4592 -504.275C-38.7787 -539.469 -83.7815 -551.528 -118.976 -531.208Z" fill="url(#paint0_linear_0_1)"/>
<path d="M286.987 -45.5128C285.875 -47.4387 283.413 -48.0985 281.487 -46.9866C279.561 -45.8747 278.901 -43.4122 280.013 -41.4863L329.673 44.5274C330.785 46.4532 333.248 47.1131 335.174 46.0012C337.099 44.8893 337.759 42.4267 336.647 40.5009L286.987 -45.5128Z" fill="url(#paint1_linear_0_1)"/>
<path d="M223.674 -107.591C220.993 -112.235 215.054 -113.826 210.41 -111.145C205.765 -108.463 204.174 -102.524 206.855 -97.88L316.883 92.6944C319.565 97.3389 325.504 98.9302 330.148 96.2487C334.793 93.5672 336.384 87.6284 333.702 82.984L223.674 -107.591Z" fill="url(#paint2_linear_0_1)"/>
</g>
<defs>
<linearGradient id="paint0_linear_0_1" x1="-492.356" y1="-92.6518" x2="58.7831" y2="223.021" gradientUnits="userSpaceOnUse">
<stop stop-color="#66A6FF"/>
<stop offset="0.833333" stop-color="#24F2FF"/>
<stop offset="1" stop-color="#89F7FE"/>
</linearGradient>
<linearGradient id="paint1_linear_0_1" x1="338.748" y1="48.2248" x2="315.196" y2="8.73975" gradientUnits="userSpaceOnUse">
<stop stop-color="#45E9F2" stop-opacity="0.823529"/>
<stop offset="1" stop-color="#8AF8FF"/>
</linearGradient>
<linearGradient id="paint2_linear_0_1" x1="338.432" y1="101.029" x2="285.995" y2="12.9064" gradientUnits="userSpaceOnUse">
<stop stop-color="#45E9F2" stop-opacity="0.823529"/>
<stop offset="1" stop-color="#8AF8FF"/>
</linearGradient>
<clipPath id="clip0_0_1">
<rect width="1366" height="9000" fill="white"/>
</clipPath>
</defs>
</svg>
