<svg width="72" height="40" viewBox="0 0 72 40" fill="none" xmlns="http://www.w3.org/2000/svg">
<rect width="40" height="40" rx="7" fill="url(#paint0_linear_0_1)"/>
<path d="M6.74308 24V14.1818H13.4451V16.109H9.11612V18.1225H13.0185V20.0545H9.11612V24H6.74308Z" fill="white"/>
<path d="M16.1236 24H14.2344L16.6882 16.7273H19.0284L21.4822 24H19.593L17.8849 18.5597H17.8281L16.1236 24ZM15.8714 21.1378H19.8203V22.473H15.8714V21.1378ZM22.2653 24V16.7273H24.0231V19.8026H24.119L26.5231 16.7273H28.5934L26.0153 19.973L28.6396 24H26.5373L24.7262 21.1413L24.0231 22.0291V24H22.2653ZM29.2868 24V16.7273H34.3578V18.1548H31.0446V19.6463H34.0985V21.0774H31.0446V22.5724H34.3578V24H29.2868Z" fill="white"/>
<path d="M44.5504 24V16.7273H47.5831C48.1276 16.7273 48.5833 16.8042 48.9503 16.9581C49.3196 17.112 49.5966 17.3274 49.7812 17.6044C49.9683 17.8814 50.0618 18.2022 50.0618 18.5668C50.0618 18.8438 50.0038 19.0911 49.8878 19.3089C49.7718 19.5244 49.612 19.7031 49.4084 19.8452C49.2048 19.9872 48.9692 20.0866 48.7017 20.1435V20.2145C48.9953 20.2287 49.2663 20.308 49.5149 20.4524C49.7659 20.5968 49.9671 20.7981 50.1186 21.0561C50.2701 21.3118 50.3459 21.6148 50.3459 21.9652C50.3459 22.3558 50.2464 22.705 50.0476 23.0128C49.8487 23.3182 49.5611 23.5597 49.1847 23.7372C48.8082 23.9124 48.3513 24 47.8139 24H44.5504ZM46.3082 22.5831H47.3949C47.776 22.5831 48.0566 22.5109 48.2365 22.3665C48.4188 22.2221 48.5099 22.0208 48.5099 21.7628C48.5099 21.5758 48.4661 21.4148 48.3786 21.2798C48.291 21.1425 48.1667 21.0372 48.0057 20.9638C47.8447 20.888 47.6518 20.8501 47.4268 20.8501H46.3082V22.5831ZM46.3082 19.7173H47.2812C47.473 19.7173 47.6435 19.6854 47.7926 19.6214C47.9418 19.5575 48.0578 19.4652 48.1406 19.3445C48.2259 19.2237 48.2685 19.0781 48.2685 18.9077C48.2685 18.6638 48.1821 18.4721 48.0092 18.3324C47.8364 18.1927 47.6032 18.1229 47.3097 18.1229H46.3082V19.7173ZM51.1911 24V16.7273H52.9489V22.5724H55.9744V24H51.1911ZM63.4656 20.3636C63.4656 21.1638 63.3117 21.8421 63.0039 22.3984C62.6961 22.9548 62.2795 23.3774 61.7539 23.6662C61.2307 23.955 60.6436 24.0994 59.9925 24.0994C59.3391 24.0994 58.7508 23.9538 58.2276 23.6626C57.7044 23.3714 57.2889 22.9489 56.9812 22.3949C56.6758 21.8385 56.5231 21.1615 56.5231 20.3636C56.5231 19.5634 56.6758 18.8852 56.9812 18.3288C57.2889 17.7725 57.7044 17.3499 58.2276 17.0611C58.7508 16.7723 59.3391 16.6278 59.9925 16.6278C60.6436 16.6278 61.2307 16.7723 61.7539 17.0611C62.2795 17.3499 62.6961 17.7725 63.0039 18.3288C63.3117 18.8852 63.4656 19.5634 63.4656 20.3636ZM61.6687 20.3636C61.6687 19.8902 61.6012 19.4901 61.4663 19.1634C61.3337 18.8366 61.1419 18.5893 60.891 18.4212C60.6424 18.2531 60.3429 18.169 59.9925 18.169C59.6445 18.169 59.3451 18.2531 59.0941 18.4212C58.8432 18.5893 58.6502 18.8366 58.5153 19.1634C58.3827 19.4901 58.3164 19.8902 58.3164 20.3636C58.3164 20.8371 58.3827 21.2372 58.5153 21.5639C58.6502 21.8906 58.8432 22.138 59.0941 22.3061C59.3451 22.4742 59.6445 22.5582 59.9925 22.5582C60.3429 22.5582 60.6424 22.4742 60.891 22.3061C61.1419 22.138 61.3337 21.8906 61.4663 21.5639C61.6012 21.2372 61.6687 20.8371 61.6687 20.3636ZM69.2646 19.103C69.2243 18.9538 69.1651 18.8224 69.087 18.7088C69.0089 18.5928 68.913 18.4946 68.7994 18.4141C68.6857 18.3336 68.5555 18.2732 68.4087 18.233C68.262 18.1903 68.101 18.169 67.9258 18.169C67.573 18.169 67.2676 18.2543 67.0096 18.4247C66.7539 18.5952 66.5562 18.8437 66.4165 19.1705C66.2769 19.4948 66.207 19.889 66.207 20.353C66.207 20.8194 66.2745 21.2171 66.4094 21.5462C66.5444 21.8752 66.7397 22.1262 66.9954 22.299C67.2511 22.4718 67.5612 22.5582 67.9258 22.5582C68.2478 22.5582 68.52 22.5062 68.7425 22.402C68.9674 22.2955 69.1379 22.1451 69.2539 21.951C69.3699 21.7569 69.4279 21.5284 69.4279 21.2656L69.7546 21.3047H67.9862V20.0227H71.1218V20.9851C71.1218 21.6361 70.9833 22.1937 70.7063 22.6577C70.4317 23.1217 70.0529 23.478 69.57 23.7266C69.0894 23.9751 68.5366 24.0994 67.9116 24.0994C67.2179 24.0994 66.6083 23.9491 66.0827 23.6484C65.5572 23.3478 65.1476 22.9193 64.854 22.3629C64.5605 21.8042 64.4137 21.1413 64.4137 20.3743C64.4137 19.7777 64.5025 19.2486 64.68 18.7869C64.8576 18.3229 65.105 17.9299 65.4222 17.608C65.7418 17.286 66.1112 17.0421 66.5302 16.8764C66.9516 16.7107 67.4049 16.6278 67.8903 16.6278C68.3117 16.6278 68.7035 16.6882 69.0657 16.8089C69.4303 16.9297 69.7522 17.1001 70.0316 17.3203C70.3133 17.5405 70.5418 17.8021 70.717 18.1051C70.8922 18.4081 71.0011 18.7408 71.0437 19.103H69.2646Z" fill="url(#paint1_linear_0_1)"/>
<defs>
<linearGradient id="paint0_linear_0_1" x1="20" y1="0" x2="20" y2="40" gradientUnits="userSpaceOnUse">
<stop stop-color="#AEDDFF"/>
<stop offset="1" stop-color="#54B7FF"/>
</linearGradient>
<linearGradient id="paint1_linear_0_1" x1="58" y1="14" x2="58" y2="26" gradientUnits="userSpaceOnUse">
<stop stop-color="#AEDDFF"/>
<stop offset="1" stop-color="#54B7FF"/>
</linearGradient>
</defs>
</svg>
